<svg width="30" height="30" viewBox="0 0 30 30" fill="none" xmlns="http://www.w3.org/2000/svg">
<path d="M25.0819 19.8244C24.6075 18.3844 24.3651 16.8781 24.3638 15.3619V11.6157C24.3983 9.2419 23.5511 6.93968 21.9862 5.15442C20.4267 3.36635 18.2622 2.21666 15.9075 1.92567C14.6063 1.79067 13.2825 1.92567 12.0262 2.3513C10.77 2.75442 9.62625 3.42755 8.6625 4.32567C7.69394 5.20063 6.92196 6.27106 6.3975 7.4663C5.87043 8.66108 5.59533 9.95169 5.58937 11.2575V15.3825C5.58663 16.8925 5.34424 18.3924 4.87125 19.8263L3.75 23.1432L4.64813 24.3769H11.22C11.22 25.3632 11.6231 26.3269 12.3188 27.0244C13.0125 27.7182 13.9781 28.1232 14.9662 28.1232C15.9525 28.1232 16.9162 27.72 17.6119 27.0244C18.3075 26.3288 18.7125 25.3632 18.7125 24.3769H25.2844L26.1806 23.1432L25.0819 19.8244ZM16.2881 25.725C16.1156 25.901 15.91 26.0411 15.6832 26.1373C15.4563 26.2335 15.2127 26.284 14.9662 26.2857C14.7194 26.284 14.4753 26.2334 14.2481 26.1368C14.0209 26.0403 13.8151 25.8997 13.6425 25.7232C13.4662 25.5508 13.3257 25.3453 13.2292 25.1184C13.1327 24.8916 13.082 24.6478 13.08 24.4013H16.8281C16.8359 24.6473 16.7921 24.8922 16.6994 25.1202C16.6067 25.3482 16.4672 25.5543 16.29 25.725H16.2881ZM5.9475 22.5188L6.64313 20.43C7.18559 18.8028 7.46596 17.0997 7.47375 15.3844V11.2575C7.47375 10.2019 7.69875 9.17067 8.12438 8.22755C8.55 7.2638 9.15562 6.41067 9.94125 5.71505C10.7269 4.9988 11.6475 4.4588 12.6337 4.14567C13.6425 3.80817 14.6962 3.69567 15.7275 3.80817C17.6175 4.0567 19.3504 4.99086 20.5969 6.43317C21.8437 7.87728 22.514 9.73059 22.4794 11.6382V15.4069C22.4794 17.1113 22.7494 18.8157 23.31 20.4525L24.0056 22.5394H5.94938V22.5169L5.9475 22.5188Z" fill="#1769FD"/>
</svg>
